[37m2026-04-29 21:25:35.777[39m[0m[0m	[32m[1mDEBUG[22m[39m[0m[0m	[37mnative:1[39m[0m[0m[1m[37m	Pochi[39m[22m[0m[0m	pochi v0.6.8
[37m2026-04-29 21:25:36.302[39m[0m[0m	[32m[1mDEBUG[22m[39m[0m[0m	[37m$bunfs/root/pochi:519633[39m[0m[0m[1m[37m	loadAgents[39m[22m[0m[0m	Loaded 6 custom agents (6 valid, 0 invalid)
[37m2026-04-29 21:25:36.309[39m[0m[0m	[32m[1mDEBUG[22m[39m[0m[0m	[37m$bunfs/root/pochi:519634[39m[0m[0m[1m[37m	loadSkills[39m[22m[0m[0m	Loaded 2 skills (2 valid, 0 invalid)
[37m2026-04-29 21:25:36.598[39m[0m[0m	[32m[1mDEBUG[22m[39m[0m[0m	[37m$bunfs/root/pochi:416517[39m[0m[0m[1m[37m	MCPHub[39m[22m[0m[0m	MCP servers configuration changed via signal:
[37m2026-04-29 21:25:36.599[39m[0m[0m	[32m[1mDEBUG[22m[39m[0m[0m	[37m$bunfs/root/pochi:416629[39m[0m[0m[1m[37m	MCPHub[39m[22m[0m[0m	Build MCPHub Status
[37m2026-04-29 21:25:36.905[39m[0m[0m	[32m[1mDEBUG[22m[39m[0m[0m	[37mnative:7[39m[0m[0m[1m[37m	Pochi[39m[22m[0m[0m	Starting task runner...
[37m2026-04-29 21:25:37.048[39m[0m[0m	[32m[1mDEBUG[22m[39m[0m[0m	[37m$bunfs/root/pochi:507614[39m[0m[0m[1m[37m	generateTaskTitle[39m[22m[0m[0m	Generating task title, old: null, new: You are a software tester assigned to verify a test case using the agent browser.
[37m2026-04-29 21:25:54.783[39m[0m[0m	[32m[1mDEBUG[22m[39m[0m[0m	[37m$bunfs/root/pochi:507614[39m[0m[0m[1m[37m	generateTaskTitle[39m[22m[0m[0m	Generating task title, old: You are a software tester assigned to verify a test case using the agent browser., new: Verify Load More button functionality for posts list
[37m2026-04-29 21:25:57.064[39m[0m[0m	[32m[1mDEBUG[22m[39m[0m[0m	[37m$bunfs/root/pochi:507614[39m[0m[0m[1m[37m	generateTaskTitle[39m[22m[0m[0m	Generating task title, old: null, new: Navigate to http://localhost:3000.
[37m2026-04-29 21:26:12.802[39m[0m[0m	[32m[1mDEBUG[22m[39m[0m[0m	[37m$bunfs/root/pochi:507614[39m[0m[0m[1m[37m	generateTaskTitle[39m[22m[0m[0m	Generating task title, old: Navigate to http://localhost:3000., new: Verify pagination and Load More functionality on the posts page
[37m2026-04-29 21:26:23.415[39m[0m[0m	[32m[1mDEBUG[22m[39m[0m[0m	[37m$bunfs/root/pochi:518560[39m[0m[0m[1m[37m	newTask[39m[22m[0m[0m	Browser stream webSocket connected.
[37m2026-04-29 21:26:23.492[39m[0m[0m	[32m[1mDEBUG[22m[39m[0m[0m	[37mnative:7[39m[0m[0m[1m[37m	MjpegToMp4[39m[22m[0m[0m	Saved frame 0: 1777497983.491
[37m2026-04-29 21:26:24.059[39m[0m[0m	[32m[1mDEBUG[22m[39m[0m[0m	[37mnative:7[39m[0m[0m[1m[37m	MjpegToMp4[39m[22m[0m[0m	Saved frame 1: 1777497984.058
[37m2026-04-29 21:26:24.635[39m[0m[0m	[32m[1mDEBUG[22m[39m[0m[0m	[37mnative:7[39m[0m[0m[1m[37m	MjpegToMp4[39m[22m[0m[0m	Saved frame 2: 1777497984.634
[37m2026-04-29 21:26:30.782[39m[0m[0m	[32m[1mDEBUG[22m[39m[0m[0m	[37mnative:7[39m[0m[0m[1m[37m	MjpegToMp4[39m[22m[0m[0m	Saved frame 3: 1777497990.782
[37m2026-04-29 21:26:36.013[39m[0m[0m	[32m[1mDEBUG[22m[39m[0m[0m	[37mnative:7[39m[0m[0m[1m[37m	MjpegToMp4[39m[22m[0m[0m	Saved frame 4: 1777497996.013
[37m2026-04-29 21:27:21.062[39m[0m[0m	[32m[1mDEBUG[22m[39m[0m[0m	[37m$bunfs/root/pochi:518560[39m[0m[0m[1m[37m	newTask[39m[22m[0m[0m	Browser stream webSocket connected.
[37m2026-04-29 21:27:21.146[39m[0m[0m	[32m[1mDEBUG[22m[39m[0m[0m	[37mnative:7[39m[0m[0m[1m[37m	MjpegToMp4[39m[22m[0m[0m	Saved frame 5: 1777498041.146
[37m2026-04-29 21:27:22.187[39m[0m[0m	[32m[1mDEBUG[22m[39m[0m[0m	[37mnative:7[39m[0m[0m[1m[37m	MjpegToMp4[39m[22m[0m[0m	Saved frame 6: 1777498042.187
[37m2026-04-29 21:27:28.325[39m[0m[0m	[32m[1mDEBUG[22m[39m[0m[0m	[37mnative:7[39m[0m[0m[1m[37m	MjpegToMp4[39m[22m[0m[0m	Saved frame 7: 1777498048.324
[37m2026-04-29 21:27:35.317[39m[0m[0m	[32m[1mDEBUG[22m[39m[0m[0m	[37mnative:7[39m[0m[0m[1m[37m	MjpegToMp4[39m[22m[0m[0m	Saved frame 8: 1777498055.316
[37m2026-04-29 21:27:35.497[39m[0m[0m	[32m[1mDEBUG[22m[39m[0m[0m	[37mnative:7[39m[0m[0m[1m[37m	MjpegToMp4[39m[22m[0m[0m	Saved frame 9: 1777498055.425
[37m2026-04-29 21:27:35.558[39m[0m[0m	[32m[1mDEBUG[22m[39m[0m[0m	[37mnative:7[39m[0m[0m[1m[37m	MjpegToMp4[39m[22m[0m[0m	Saved frame 10: 1777498055.523
[37m2026-04-29 21:27:35.558[39m[0m[0m	[32m[1mDEBUG[22m[39m[0m[0m	[37mnative:7[39m[0m[0m[1m[37m	MjpegToMp4[39m[22m[0m[0m	Saved frame 10: 1777498055.547
[37m2026-04-29 21:27:35.917[39m[0m[0m	[32m[1mDEBUG[22m[39m[0m[0m	[37mnative:7[39m[0m[0m[1m[37m	MjpegToMp4[39m[22m[0m[0m	Saved frame 12: 1777498055.914
[37m2026-04-29 21:27:35.924[39m[0m[0m	[32m[1mDEBUG[22m[39m[0m[0m	[37mnative:7[39m[0m[0m[1m[37m	MjpegToMp4[39m[22m[0m[0m	Saved frame 13: 1777498055.924
[37m2026-04-29 21:27:36.039[39m[0m[0m	[32m[1mDEBUG[22m[39m[0m[0m	[37mnative:7[39m[0m[0m[1m[37m	MjpegToMp4[39m[22m[0m[0m	Saved frame 14: 1777498056.039
[37m2026-04-29 21:27:36.063[39m[0m[0m	[32m[1mDEBUG[22m[39m[0m[0m	[37mnative:7[39m[0m[0m[1m[37m	MjpegToMp4[39m[22m[0m[0m	Saved frame 15: 1777498056.062
[37m2026-04-29 21:27:36.079[39m[0m[0m	[32m[1mDEBUG[22m[39m[0m[0m	[37mnative:7[39m[0m[0m[1m[37m	MjpegToMp4[39m[22m[0m[0m	Saved frame 16: 1777498056.078
[37m2026-04-29 21:27:36.106[39m[0m[0m	[32m[1mDEBUG[22m[39m[0m[0m	[37mnative:7[39m[0m[0m[1m[37m	MjpegToMp4[39m[22m[0m[0m	Saved frame 17: 1777498056.105
[37m2026-04-29 21:27:36.115[39m[0m[0m	[32m[1mDEBUG[22m[39m[0m[0m	[37mnative:7[39m[0m[0m[1m[37m	MjpegToMp4[39m[22m[0m[0m	Saved frame 18: 1777498056.115
[37m2026-04-29 21:27:36.132[39m[0m[0m	[32m[1mDEBUG[22m[39m[0m[0m	[37mnative:7[39m[0m[0m[1m[37m	MjpegToMp4[39m[22m[0m[0m	Saved frame 19: 1777498056.13
[37m2026-04-29 21:27:36.147[39m[0m[0m	[32m[1mDEBUG[22m[39m[0m[0m	[37mnative:7[39m[0m[0m[1m[37m	MjpegToMp4[39m[22m[0m[0m	Saved frame 20: 1777498056.145
[37m2026-04-29 21:27:36.171[39m[0m[0m	[32m[1mDEBUG[22m[39m[0m[0m	[37mnative:7[39m[0m[0m[1m[37m	MjpegToMp4[39m[22m[0m[0m	Saved frame 21: 1777498056.171
[37m2026-04-29 21:27:36.186[39m[0m[0m	[32m[1mDEBUG[22m[39m[0m[0m	[37mnative:7[39m[0m[0m[1m[37m	MjpegToMp4[39m[22m[0m[0m	Saved frame 22: 1777498056.185
[37m2026-04-29 21:27:36.196[39m[0m[0m	[32m[1mDEBUG[22m[39m[0m[0m	[37mnative:7[39m[0m[0m[1m[37m	MjpegToMp4[39m[22m[0m[0m	Saved frame 23: 1777498056.196
[37m2026-04-29 21:27:36.211[39m[0m[0m	[32m[1mDEBUG[22m[39m[0m[0m	[37mnative:7[39m[0m[0m[1m[37m	MjpegToMp4[39m[22m[0m[0m	Saved frame 24: 1777498056.21
[37m2026-04-29 21:27:36.239[39m[0m[0m	[32m[1mDEBUG[22m[39m[0m[0m	[37mnative:7[39m[0m[0m[1m[37m	MjpegToMp4[39m[22m[0m[0m	Saved frame 25: 1777498056.234
[37m2026-04-29 21:27:36.251[39m[0m[0m	[32m[1mDEBUG[22m[39m[0m[0m	[37mnative:7[39m[0m[0m[1m[37m	MjpegToMp4[39m[22m[0m[0m	Saved frame 26: 1777498056.243
[37m2026-04-29 21:27:36.256[39m[0m[0m	[32m[1mDEBUG[22m[39m[0m[0m	[37mnative:7[39m[0m[0m[1m[37m	MjpegToMp4[39m[22m[0m[0m	Saved frame 27: 1777498056.253
[37m2026-04-29 21:27:36.272[39m[0m[0m	[32m[1mDEBUG[22m[39m[0m[0m	[37mnative:7[39m[0m[0m[1m[37m	MjpegToMp4[39m[22m[0m[0m	Saved frame 28: 1777498056.271
[37m2026-04-29 21:27:36.288[39m[0m[0m	[32m[1mDEBUG[22m[39m[0m[0m	[37mnative:7[39m[0m[0m[1m[37m	MjpegToMp4[39m[22m[0m[0m	Saved frame 29: 1777498056.287
[37m2026-04-29 21:27:36.322[39m[0m[0m	[32m[1mDEBUG[22m[39m[0m[0m	[37mnative:7[39m[0m[0m[1m[37m	MjpegToMp4[39m[22m[0m[0m	Saved frame 30: 1777498056.321
[37m2026-04-29 21:27:36.334[39m[0m[0m	[32m[1mDEBUG[22m[39m[0m[0m	[37mnative:7[39m[0m[0m[1m[37m	MjpegToMp4[39m[22m[0m[0m	Saved frame 31: 1777498056.334
[37m2026-04-29 21:27:36.385[39m[0m[0m	[32m[1mDEBUG[22m[39m[0m[0m	[37mnative:7[39m[0m[0m[1m[37m	MjpegToMp4[39m[22m[0m[0m	Saved frame 32: 1777498056.35
[37m2026-04-29 21:27:36.386[39m[0m[0m	[32m[1mDEBUG[22m[39m[0m[0m	[37mnative:7[39m[0m[0m[1m[37m	MjpegToMp4[39m[22m[0m[0m	Saved frame 32: 1777498056.375
[37m2026-04-29 21:27:36.401[39m[0m[0m	[32m[1mDEBUG[22m[39m[0m[0m	[37mnative:7[39m[0m[0m[1m[37m	MjpegToMp4[39m[22m[0m[0m	Saved frame 34: 1777498056.386
[37m2026-04-29 21:27:36.402[39m[0m[0m	[32m[1mDEBUG[22m[39m[0m[0m	[37mnative:7[39m[0m[0m[1m[37m	MjpegToMp4[39m[22m[0m[0m	Saved frame 34: 1777498056.401
[37m2026-04-29 21:27:36.424[39m[0m[0m	[32m[1mDEBUG[22m[39m[0m[0m	[37mnative:7[39m[0m[0m[1m[37m	MjpegToMp4[39m[22m[0m[0m	Saved frame 36: 1777498056.421
[37m2026-04-29 21:27:36.441[39m[0m[0m	[32m[1mDEBUG[22m[39m[0m[0m	[37mnative:7[39m[0m[0m[1m[37m	MjpegToMp4[39m[22m[0m[0m	Saved frame 37: 1777498056.438
[37m2026-04-29 21:27:36.475[39m[0m[0m	[32m[1mDEBUG[22m[39m[0m[0m	[37mnative:7[39m[0m[0m[1m[37m	MjpegToMp4[39m[22m[0m[0m	Saved frame 38: 1777498056.474
[37m2026-04-29 21:27:36.489[39m[0m[0m	[32m[1mDEBUG[22m[39m[0m[0m	[37mnative:7[39m[0m[0m[1m[37m	MjpegToMp4[39m[22m[0m[0m	Saved frame 39: 1777498056.489
[37m2026-04-29 21:27:36.736[39m[0m[0m	[32m[1mDEBUG[22m[39m[0m[0m	[37mnative:7[39m[0m[0m[1m[37m	MjpegToMp4[39m[22m[0m[0m	Saved frame 40: 1777498056.735
[37m2026-04-29 21:27:37.422[39m[0m[0m	[32m[1mDEBUG[22m[39m[0m[0m	[37mnative:7[39m[0m[0m[1m[37m	MjpegToMp4[39m[22m[0m[0m	Saved frame 41: 1777498057.421
[37m2026-04-29 21:27:37.643[39m[0m[0m	[32m[1mDEBUG[22m[39m[0m[0m	[37mnative:7[39m[0m[0m[1m[37m	MjpegToMp4[39m[22m[0m[0m	Saved frame 42: 1777498057.641
[37m2026-04-29 21:27:38.835[39m[0m[0m	[32m[1mDEBUG[22m[39m[0m[0m	[37mnative:7[39m[0m[0m[1m[37m	MjpegToMp4[39m[22m[0m[0m	Saved frame 43: 1777498058.831
[37m2026-04-29 21:27:39.012[39m[0m[0m	[32m[1mDEBUG[22m[39m[0m[0m	[37mnative:7[39m[0m[0m[1m[37m	MjpegToMp4[39m[22m[0m[0m	Saved frame 44: 1777498059.012
[37m2026-04-29 21:27:39.954[39m[0m[0m	[32m[1mDEBUG[22m[39m[0m[0m	[37mnative:7[39m[0m[0m[1m[37m	MjpegToMp4[39m[22m[0m[0m	Saved frame 45: 1777498059.947
[37m2026-04-29 21:27:41.615[39m[0m[0m	[32m[1mDEBUG[22m[39m[0m[0m	[37mnative:7[39m[0m[0m[1m[37m	MjpegToMp4[39m[22m[0m[0m	Saved frame 46: 1777498061.615
[37m2026-04-29 21:27:41.704[39m[0m[0m	[32m[1mDEBUG[22m[39m[0m[0m	[37mnative:7[39m[0m[0m[1m[37m	MjpegToMp4[39m[22m[0m[0m	Saved frame 47: 1777498061.703
[37m2026-04-29 21:27:41.798[39m[0m[0m	[32m[1mDEBUG[22m[39m[0m[0m	[37mnative:7[39m[0m[0m[1m[37m	MjpegToMp4[39m[22m[0m[0m	Saved frame 48: 1777498061.797
[37m2026-04-29 21:27:41.915[39m[0m[0m	[32m[1mDEBUG[22m[39m[0m[0m	[37mnative:7[39m[0m[0m[1m[37m	MjpegToMp4[39m[22m[0m[0m	Saved frame 49: 1777498061.915
[37m2026-04-29 21:28:34.975[39m[0m[0m	[32m[1mDEBUG[22m[39m[0m[0m	[37mnative:7[39m[0m[0m[1m[37m	MjpegToMp4[39m[22m[0m[0m	Saved frame 50: 1777498114.972
[37m2026-04-29 21:28:35.883[39m[0m[0m	[32m[1mDEBUG[22m[39m[0m[0m	[37mnative:7[39m[0m[0m[1m[37m	MjpegToMp4[39m[22m[0m[0m	Saved frame 51: 1777498115.882
[37m2026-04-29 21:28:35.978[39m[0m[0m	[32m[1mDEBUG[22m[39m[0m[0m	[37mnative:7[39m[0m[0m[1m[37m	MjpegToMp4[39m[22m[0m[0m	Saved frame 52: 1777498115.977
[37m2026-04-29 21:28:36.059[39m[0m[0m	[32m[1mDEBUG[22m[39m[0m[0m	[37mnative:7[39m[0m[0m[1m[37m	MjpegToMp4[39m[22m[0m[0m	Saved frame 53: 1777498116.058
[37m2026-04-29 21:28:57.507[39m[0m[0m	[32m[1mDEBUG[22m[39m[0m[0m	[37mnative:7[39m[0m[0m[1m[37m	MjpegToMp4[39m[22m[0m[0m	Saved frame 54: 1777498137.507
[37m2026-04-29 21:28:58.051[39m[0m[0m	[32m[1mDEBUG[22m[39m[0m[0m	[37mnative:7[39m[0m[0m[1m[37m	MjpegToMp4[39m[22m[0m[0m	Saved frame 55: 1777498138.051
[37m2026-04-29 21:28:58.148[39m[0m[0m	[32m[1mDEBUG[22m[39m[0m[0m	[37mnative:7[39m[0m[0m[1m[37m	MjpegToMp4[39m[22m[0m[0m	Saved frame 56: 1777498138.147
[37m2026-04-29 21:28:58.171[39m[0m[0m	[32m[1mDEBUG[22m[39m[0m[0m	[37mnative:7[39m[0m[0m[1m[37m	MjpegToMp4[39m[22m[0m[0m	Saved frame 57: 1777498138.171
[37m2026-04-29 21:29:19.326[39m[0m[0m	[32m[1mDEBUG[22m[39m[0m[0m	[37mnative:7[39m[0m[0m[1m[37m	MjpegToMp4[39m[22m[0m[0m	Saved frame 58: 1777498159.305
[37m2026-04-29 21:29:19.331[39m[0m[0m	[32m[1mDEBUG[22m[39m[0m[0m	[37mnative:7[39m[0m[0m[1m[37m	MjpegToMp4[39m[22m[0m[0m	Saved frame 59: 1777498159.328
[37m2026-04-29 21:29:19.455[39m[0m[0m	[32m[1mDEBUG[22m[39m[0m[0m	[37mnative:7[39m[0m[0m[1m[37m	MjpegToMp4[39m[22m[0m[0m	Saved frame 60: 1777498159.454
[37m2026-04-29 21:29:19.459[39m[0m[0m	[32m[1mDEBUG[22m[39m[0m[0m	[37mnative:7[39m[0m[0m[1m[37m	MjpegToMp4[39m[22m[0m[0m	Saved frame 60: 1777498159.455
[37m2026-04-29 21:29:35.591[39m[0m[0m	[32m[1mDEBUG[22m[39m[0m[0m	[37mnative:7[39m[0m[0m[1m[37m	MjpegToMp4[39m[22m[0m[0m	Saved frame 62: 1777498175.587
[37m2026-04-29 21:29:35.603[39m[0m[0m	[32m[1mDEBUG[22m[39m[0m[0m	[37mnative:7[39m[0m[0m[1m[37m	MjpegToMp4[39m[22m[0m[0m	Saved frame 62: 1777498175.587
[37m2026-04-29 21:29:35.607[39m[0m[0m	[32m[1mDEBUG[22m[39m[0m[0m	[37mnative:7[39m[0m[0m[1m[37m	MjpegToMp4[39m[22m[0m[0m	Saved frame 64: 1777498175.603
[37m2026-04-29 21:29:58.248[39m[0m[0m	[32m[1mDEBUG[22m[39m[0m[0m	[37mnative:7[39m[0m[0m[1m[37m	MjpegToMp4[39m[22m[0m[0m	Saved frame 65: 1777498198.248
[37m2026-04-29 21:30:19.384[39m[0m[0m	[32m[1mDEBUG[22m[39m[0m[0m	[37m$bunfs/root/pochi:104654[39m[0m[0m[1m[37m	MjpegToMp4[39m[22m[0m[0m	[ffmpeg] start: ffmpeg -safe 0 -f concat -i /tmp/pochi-mjpeg2mp4-8JZi0d/frames.ffconcat -y -vcodec libx264 -filter:v scale=854:480:force_original_aspect_ratio=decrease,pad=854:480:(ow-iw)/2:(oh-ih)/2:color=black -pix_fmt yuv420p -movflags +faststart -preset veryfast -crf 23 -an -f mp4 /tmp/pochi-browser-agent-video-7481809f-8d46-4cce-b68a-bcc12eabe1df.mp4
[37m2026-04-29 21:30:19.438[39m[0m[0m	[32m[1mDEBUG[22m[39m[0m[0m	[37m$bunfs/root/pochi:104693[39m[0m[0m[1m[37m	MjpegToMp4[39m[22m[0m[0m	[ffmpeg] stderr: ffmpeg version 6.1.1-3ubuntu5 Copyright (c) 2000-2023 the FFmpeg developers
[37m2026-04-29 21:30:19.438[39m[0m[0m	[32m[1mDEBUG[22m[39m[0m[0m	[37m$bunfs/root/pochi:104693[39m[0m[0m[1m[37m	MjpegToMp4[39m[22m[0m[0m	[ffmpeg] stderr:   built with gcc 13 (Ubuntu 13.2.0-23ubuntu3)
[37m2026-04-29 21:30:19.438[39m[0m[0m	[32m[1mDEBUG[22m[39m[0m[0m	[37m$bunfs/root/pochi:104693[39m[0m[0m[1m[37m	MjpegToMp4[39m[22m[0m[0m	[ffmpeg] stderr:   configuration: --prefix=/usr --extra-version=3ubuntu5 --toolchain=hardened --libdir=/usr/lib/x86_64-linux-gnu --incdir=/usr/include/x86_64-linux-gnu --arch=amd64 --enable-gpl --disable-stripping --disable-omx --enable-gnutls --enable-libaom --enable-libass --enable-libbs2b --enable-libcaca --enable-libcdio --enable-libcodec2 --enable-libdav1d --enable-libflite --enable-libfontconfig --enable-libfreetype --enable-libfribidi --enable-libglslang --enable-libgme --enable-libgsm --enable-libharfbuzz --enable-libmp3lame --enable-libmysofa --enable-libopenjpeg --enable-libopenmpt --enable-libopus --enable-librubberband --enable-libshine --enable-libsnappy --enable-libsoxr --enable-libspeex --enable-libtheora --enable-libtwolame --enable-libvidstab --enable-libvorbis --enable-libvpx --enable-libwebp --enable-libx265 --enable-libxml2 --enable-libxvid --enable-libzimg --enable-openal --enable-opencl --enable-opengl --disable-sndio --enable-libvpl --disable-libmfx --enable-libdc1394 --enable-libdrm --enable-libiec61883 --enable-chromaprint --enable-frei0r --enable-ladspa --enable-libbluray --enable-libjack --enable-libpulse --enable-librabbitmq --enable-librist --enable-libsrt --enable-libssh --enable-libsvtav1 --enable-libx264 --enable-libzmq --enable-libzvbi --enable-lv2 --enable-sdl2 --enable-libplacebo --enable-librav1e --enable-pocketsphinx --enable-librsvg --enable-libjxl --enable-shared
[37m2026-04-29 21:30:19.438[39m[0m[0m	[32m[1mDEBUG[22m[39m[0m[0m	[37m$bunfs/root/pochi:104693[39m[0m[0m[1m[37m	MjpegToMp4[39m[22m[0m[0m	[ffmpeg] stderr:   libavutil      58. 29.100 / 58. 29.100
[37m2026-04-29 21:30:19.439[39m[0m[0m	[32m[1mDEBUG[22m[39m[0m[0m	[37m$bunfs/root/pochi:104693[39m[0m[0m[1m[37m	MjpegToMp4[39m[22m[0m[0m	[ffmpeg] stderr:   libavcodec     60. 31.102 / 60. 31.102
[37m2026-04-29 21:30:19.439[39m[0m[0m	[32m[1mDEBUG[22m[39m[0m[0m	[37m$bunfs/root/pochi:104693[39m[0m[0m[1m[37m	MjpegToMp4[39m[22m[0m[0m	[ffmpeg] stderr:   libavformat    60. 16.100 / 60. 16.100
[37m2026-04-29 21:30:19.439[39m[0m[0m	[32m[1mDEBUG[22m[39m[0m[0m	[37m$bunfs/root/pochi:104693[39m[0m[0m[1m[37m	MjpegToMp4[39m[22m[0m[0m	[ffmpeg] stderr:   libavdevice    60.  3.100 / 60.  3.100
[37m2026-04-29 21:30:19.439[39m[0m[0m	[32m[1mDEBUG[22m[39m[0m[0m	[37m$bunfs/root/pochi:104693[39m[0m[0m[1m[37m	MjpegToMp4[39m[22m[0m[0m	[ffmpeg] stderr:   libavfilter     9. 12.100 /  9. 12.100
[37m2026-04-29 21:30:19.439[39m[0m[0m	[32m[1mDEBUG[22m[39m[0m[0m	[37m$bunfs/root/pochi:104693[39m[0m[0m[1m[37m	MjpegToMp4[39m[22m[0m[0m	[ffmpeg] stderr:   libswscale      7.  5.100 /  7.  5.100
[37m2026-04-29 21:30:19.439[39m[0m[0m	[32m[1mDEBUG[22m[39m[0m[0m	[37m$bunfs/root/pochi:104693[39m[0m[0m[1m[37m	MjpegToMp4[39m[22m[0m[0m	[ffmpeg] stderr:   libswresample   4. 12.100 /  4. 12.100
[37m2026-04-29 21:30:19.439[39m[0m[0m	[32m[1mDEBUG[22m[39m[0m[0m	[37m$bunfs/root/pochi:104693[39m[0m[0m[1m[37m	MjpegToMp4[39m[22m[0m[0m	[ffmpeg] stderr:   libpostproc    57.  3.100 / 57.  3.100
[37m2026-04-29 21:30:19.439[39m[0m[0m	[32m[1mDEBUG[22m[39m[0m[0m	[37m$bunfs/root/pochi:104693[39m[0m[0m[1m[37m	MjpegToMp4[39m[22m[0m[0m	[ffmpeg] stderr: Input #0, concat, from '/tmp/pochi-mjpeg2mp4-8JZi0d/frames.ffconcat':
[37m2026-04-29 21:30:19.439[39m[0m[0m	[32m[1mDEBUG[22m[39m[0m[0m	[37m$bunfs/root/pochi:104693[39m[0m[0m[1m[37m	MjpegToMp4[39m[22m[0m[0m	[ffmpeg] stderr:   Duration: N/A, start: 0.000000, bitrate: N/A
[37m2026-04-29 21:30:19.439[39m[0m[0m	[32m[1mDEBUG[22m[39m[0m[0m	[37m$bunfs/root/pochi:104693[39m[0m[0m[1m[37m	MjpegToMp4[39m[22m[0m[0m	[ffmpeg] stderr:   Stream #0:0: Video: mjpeg (Baseline), yuvj420p(pc, bt470bg/unknown/unknown), 1280x577 [SAR 1:1 DAR 1280:577], 25 fps, 25 tbr, 25 tbn
[37m2026-04-29 21:30:19.440[39m[0m[0m	[32m[1mDEBUG[22m[39m[0m[0m	[37m$bunfs/root/pochi:104693[39m[0m[0m[1m[37m	MjpegToMp4[39m[22m[0m[0m	[ffmpeg] stderr: Stream mapping:
[37m2026-04-29 21:30:19.440[39m[0m[0m	[32m[1mDEBUG[22m[39m[0m[0m	[37m$bunfs/root/pochi:104693[39m[0m[0m[1m[37m	MjpegToMp4[39m[22m[0m[0m	[ffmpeg] stderr:   Stream #0:0 -> #0:0 (mjpeg (native) -> h264 (libx264))
[37m2026-04-29 21:30:19.440[39m[0m[0m	[32m[1mDEBUG[22m[39m[0m[0m	[37m$bunfs/root/pochi:104693[39m[0m[0m[1m[37m	MjpegToMp4[39m[22m[0m[0m	[ffmpeg] stderr: Press [q] to stop, [?] for help
[37m2026-04-29 21:30:19.444[39m[0m[0m	[32m[1mDEBUG[22m[39m[0m[0m	[37m$bunfs/root/pochi:104693[39m[0m[0m[1m[37m	MjpegToMp4[39m[22m[0m[0m	[ffmpeg] stderr: [swscaler @ 0x64d64b1ef4c0] deprecated pixel format used, make sure you did set range correctly
[37m2026-04-29 21:30:19.448[39m[0m[0m	[32m[1mDEBUG[22m[39m[0m[0m	[37m$bunfs/root/pochi:104693[39m[0m[0m[1m[37m	MjpegToMp4[39m[22m[0m[0m	[ffmpeg] stderr: [swscaler @ 0x64d64b2dc940] deprecated pixel format used, make sure you did set range correctly
[37m2026-04-29 21:30:19.461[39m[0m[0m	[32m[1mDEBUG[22m[39m[0m[0m	[37m$bunfs/root/pochi:104693[39m[0m[0m[1m[37m	MjpegToMp4[39m[22m[0m[0m	[ffmpeg] stderr:     Last message repeated 2 times
[37m2026-04-29 21:30:19.462[39m[0m[0m	[32m[1mDEBUG[22m[39m[0m[0m	[37m$bunfs/root/pochi:104693[39m[0m[0m[1m[37m	MjpegToMp4[39m[22m[0m[0m	[ffmpeg] stderr: [libx264 @ 0x64d64b1d0280] using SAR=1/1
[37m2026-04-29 21:30:19.462[39m[0m[0m	[32m[1mDEBUG[22m[39m[0m[0m	[37m$bunfs/root/pochi:104693[39m[0m[0m[1m[37m	MjpegToMp4[39m[22m[0m[0m	[ffmpeg] stderr: [libx264 @ 0x64d64b1d0280] using cpu capabilities: MMX2 SSE2Fast SSSE3 SSE4.2 AVX FMA3 BMI2 AVX2
[37m2026-04-29 21:30:19.463[39m[0m[0m	[32m[1mDEBUG[22m[39m[0m[0m	[37m$bunfs/root/pochi:104693[39m[0m[0m[1m[37m	MjpegToMp4[39m[22m[0m[0m	[ffmpeg] stderr: [libx264 @ 0x64d64b1d0280] profile High, level 3.0, 4:2:0, 8-bit
[37m2026-04-29 21:30:19.464[39m[0m[0m	[32m[1mDEBUG[22m[39m[0m[0m	[37m$bunfs/root/pochi:104693[39m[0m[0m[1m[37m	MjpegToMp4[39m[22m[0m[0m	[ffmpeg] stderr: [libx264 @ 0x64d64b1d0280] 264 - core 164 r3108 31e19f9 - H.264/MPEG-4 AVC codec - Copyleft 2003-2023 - http://www.videolan.org/x264.html - options: cabac=1 ref=1 deblock=1:0:0 analyse=0x3:0x113 me=hex subme=2 psy=1 psy_rd=1.00:0.00 mixed_ref=0 me_range=16 chroma_me=1 trellis=0 8x8dct=1 cqm=0 deadzone=21,11 fast_pskip=1 chroma_qp_offset=0 threads=6 lookahead_threads=2 sliced_threads=0 nr=0 decimate=1 interlaced=0 bluray_compat=0 constrained_intra=0 bframes=3 b_pyramid=2 b_adapt=1 b_bias=0 direct=1 weightb=1 open_gop=0 weightp=1 keyint=250 keyint_min=25 scenecut=40 intra_refresh=0 rc_lookahead=10 rc=crf mbtree=1 crf=23.0 qcomp=0.60 qpmin=0 qpmax=69 qpstep=4 ip_ratio=1.40 aq=1:1.00
[37m2026-04-29 21:30:19.464[39m[0m[0m	[32m[1mDEBUG[22m[39m[0m[0m	[37m$bunfs/root/pochi:104693[39m[0m[0m[1m[37m	MjpegToMp4[39m[22m[0m[0m	[ffmpeg] stderr: Output #0, mp4, to '/tmp/pochi-browser-agent-video-7481809f-8d46-4cce-b68a-bcc12eabe1df.mp4':
[37m2026-04-29 21:30:19.464[39m[0m[0m	[32m[1mDEBUG[22m[39m[0m[0m	[37m$bunfs/root/pochi:104693[39m[0m[0m[1m[37m	MjpegToMp4[39m[22m[0m[0m	[ffmpeg] stderr:   Metadata:
[37m2026-04-29 21:30:19.464[39m[0m[0m	[32m[1mDEBUG[22m[39m[0m[0m	[37m$bunfs/root/pochi:104693[39m[0m[0m[1m[37m	MjpegToMp4[39m[22m[0m[0m	[ffmpeg] stderr:     encoder         : Lavf60.16.100
[37m2026-04-29 21:30:19.464[39m[0m[0m	[32m[1mDEBUG[22m[39m[0m[0m	[37m$bunfs/root/pochi:104693[39m[0m[0m[1m[37m	MjpegToMp4[39m[22m[0m[0m	[ffmpeg] stderr:   Stream #0:0: Video: h264 (avc1 / 0x31637661), yuv420p(tv, bt470bg/unknown/unknown, progressive), 854x480 [SAR 35200:35197 DAR 3080:1731], q=2-31, 25 fps, 12800 tbn
[37m2026-04-29 21:30:19.464[39m[0m[0m	[32m[1mDEBUG[22m[39m[0m[0m	[37m$bunfs/root/pochi:104693[39m[0m[0m[1m[37m	MjpegToMp4[39m[22m[0m[0m	[ffmpeg] stderr:     Metadata:
[37m2026-04-29 21:30:19.464[39m[0m[0m	[32m[1mDEBUG[22m[39m[0m[0m	[37m$bunfs/root/pochi:104693[39m[0m[0m[1m[37m	MjpegToMp4[39m[22m[0m[0m	[ffmpeg] stderr:       encoder         : Lavc60.31.102 libx264
[37m2026-04-29 21:30:19.464[39m[0m[0m	[32m[1mDEBUG[22m[39m[0m[0m	[37m$bunfs/root/pochi:104693[39m[0m[0m[1m[37m	MjpegToMp4[39m[22m[0m[0m	[ffmpeg] stderr:     Side data:
[37m2026-04-29 21:30:19.464[39m[0m[0m	[32m[1mDEBUG[22m[39m[0m[0m	[37m$bunfs/root/pochi:104693[39m[0m[0m[1m[37m	MjpegToMp4[39m[22m[0m[0m	[ffmpeg] stderr:       cpb: bitrate max/min/avg: 0/0/0 buffer size: 0 vbv_delay: N/A
[37m2026-04-29 21:30:19.466[39m[0m[0m	[32m[1mDEBUG[22m[39m[0m[0m	[37m$bunfs/root/pochi:104693[39m[0m[0m[1m[37m	MjpegToMp4[39m[22m[0m[0m	[ffmpeg] stderr: frame=    0 fps=0.0 q=0.0 size=       0kB time=N/A bitrate=N/A speed=N/A    
[37m2026-04-29 21:30:20.242[39m[0m[0m	[32m[1mDEBUG[22m[39m[0m[0m	[37m$bunfs/root/pochi:104693[39m[0m[0m[1m[37m	MjpegToMp4[39m[22m[0m[0m	[ffmpeg] stderr: frame=  570 fps=0.0 q=28.0 size=       0kB time=00:00:22.68 bitrate=   0.0kbits/s dup=583 drop=0 speed=29.4x    
[37m2026-04-29 21:30:20.415[39m[0m[0m	[32m[1mDEBUG[22m[39m[0m[0m	[37m$bunfs/root/pochi:104693[39m[0m[0m[1m[37m	MjpegToMp4[39m[22m[0m[0m	[ffmpeg] stderr: [mjpeg @ 0x64d64b1c0100] EOI missing, emulating
[37m2026-04-29 21:30:20.716[39m[0m[0m	[32m[1mDEBUG[22m[39m[0m[0m	[37m$bunfs/root/pochi:104693[39m[0m[0m[1m[37m	MjpegToMp4[39m[22m[0m[0m	[ffmpeg] stderr:     Last message repeated 2 times
[37m2026-04-29 21:30:20.717[39m[0m[0m	[32m[1mDEBUG[22m[39m[0m[0m	[37m$bunfs/root/pochi:104693[39m[0m[0m[1m[37m	MjpegToMp4[39m[22m[0m[0m	[ffmpeg] stderr: frame=  916 fps=719 q=25.0 size=       0kB time=00:00:36.56 bitrate=   0.0kbits/s dup=921 drop=0 speed=28.7x    
[37m2026-04-29 21:30:20.793[39m[0m[0m	[32m[1mDEBUG[22m[39m[0m[0m	[37m$bunfs/root/pochi:104693[39m[0m[0m[1m[37m	MjpegToMp4[39m[22m[0m[0m	[ffmpeg] stderr: [mjpeg @ 0x64d64b1c0100] EOI missing, emulating
[37m2026-04-29 21:30:20.948[39m[0m[0m	[32m[1mDEBUG[22m[39m[0m[0m	[37m$bunfs/root/pochi:104693[39m[0m[0m[1m[37m	MjpegToMp4[39m[22m[0m[0m	[ffmpeg] stderr:     Last message repeated 4 times
[37m2026-04-29 21:30:20.950[39m[0m[0m	[32m[1mDEBUG[22m[39m[0m[0m	[37m$bunfs/root/pochi:104693[39m[0m[0m[1m[37m	MjpegToMp4[39m[22m[0m[0m	[ffmpeg] stderr: [vost#0:0/libx264 @ 0x64d64b1cff80] More than 1000 frames duplicated
[37m2026-04-29 21:30:21.477[39m[0m[0m	[32m[1mDEBUG[22m[39m[0m[0m	[37m$bunfs/root/pochi:104693[39m[0m[0m[1m[37m	MjpegToMp4[39m[22m[0m[0m	[ffmpeg] stderr: frame= 1335 fps=673 q=28.0 size=       0kB time=00:00:53.32 bitrate=   0.0kbits/s dup=1315 drop=11 speed=26.9x    
[37m2026-04-29 21:30:21.959[39m[0m[0m	[32m[1mDEBUG[22m[39m[0m[0m	[37m$bunfs/root/pochi:104693[39m[0m[0m[1m[37m	MjpegToMp4[39m[22m[0m[0m	[ffmpeg] stderr: frame= 1604 fps=644 q=28.0 size=       0kB time=00:01:04.04 bitrate=   0.0kbits/s dup=1579 drop=11 speed=25.7x    
[37m2026-04-29 21:30:22.501[39m[0m[0m	[32m[1mDEBUG[22m[39m[0m[0m	[37m$bunfs/root/pochi:104693[39m[0m[0m[1m[37m	MjpegToMp4[39m[22m[0m[0m	[ffmpeg] stderr: frame= 1857 fps=608 q=28.0 size=       0kB time=00:01:14.20 bitrate=   0.0kbits/s dup=1829 drop=11 speed=24.3x    
[37m2026-04-29 21:30:22.998[39m[0m[0m	[32m[1mDEBUG[22m[39m[0m[0m	[37m$bunfs/root/pochi:104693[39m[0m[0m[1m[37m	MjpegToMp4[39m[22m[0m[0m	[ffmpeg] stderr: frame= 2111 fps=594 q=28.0 size=       0kB time=00:01:24.36 bitrate=   0.0kbits/s dup=2079 drop=11 speed=23.7x    
[37m2026-04-29 21:30:23.572[39m[0m[0m	[32m[1mDEBUG[22m[39m[0m[0m	[37m$bunfs/root/pochi:104693[39m[0m[0m[1m[37m	MjpegToMp4[39m[22m[0m[0m	[ffmpeg] stderr: frame= 2386 fps=587 q=28.0 size=       0kB time=00:01:35.32 bitrate=   0.0kbits/s dup=2350 drop=11 speed=23.4x    
[37m2026-04-29 21:30:23.655[39m[0m[0m	[32m[1mDEBUG[22m[39m[0m[0m	[37m$bunfs/root/pochi:104693[39m[0m[0m[1m[37m	MjpegToMp4[39m[22m[0m[0m	[ffmpeg] stderr: [mp4 @ 0x64d64b1cf940] Starting second pass: moving the moov atom to the beginning of the file
[37m2026-04-29 21:30:23.656[39m[0m[0m	[32m[1mDEBUG[22m[39m[0m[0m	[37m$bunfs/root/pochi:104693[39m[0m[0m[1m[37m	MjpegToMp4[39m[22m[0m[0m	[ffmpeg] stderr: [out#0/mp4 @ 0x64d64b1cde80] video:186kB audio:0kB subtitle:0kB other streams:0kB global headers:0kB muxing overhead: 15.700665%
[37m2026-04-29 21:30:23.657[39m[0m[0m	[32m[1mDEBUG[22m[39m[0m[0m	[37m$bunfs/root/pochi:104693[39m[0m[0m[1m[37m	MjpegToMp4[39m[22m[0m[0m	[ffmpeg] stderr: frame= 2429 fps=576 q=-1.0 Lsize=     216kB time=00:01:37.04 bitrate=  18.2kbits/s dup=2373 drop=11 speed=  23x    
[37m2026-04-29 21:30:23.657[39m[0m[0m	[32m[1mDEBUG[22m[39m[0m[0m	[37m$bunfs/root/pochi:104693[39m[0m[0m[1m[37m	MjpegToMp4[39m[22m[0m[0m	[ffmpeg] stderr: [libx264 @ 0x64d64b1d0280] frame I:16    Avg QP:11.34  size:  7467
[37m2026-04-29 21:30:23.657[39m[0m[0m	[32m[1mDEBUG[22m[39m[0m[0m	[37m$bunfs/root/pochi:104693[39m[0m[0m[1m[37m	MjpegToMp4[39m[22m[0m[0m	[ffmpeg] stderr: [libx264 @ 0x64d64b1d0280] frame P:614   Avg QP:10.36  size:    45
[37m2026-04-29 21:30:23.658[39m[0m[0m	[32m[1mDEBUG[22m[39m[0m[0m	[37m$bunfs/root/pochi:104693[39m[0m[0m[1m[37m	MjpegToMp4[39m[22m[0m[0m	[ffmpeg] stderr: [libx264 @ 0x64d64b1d0280] frame B:1799  Avg QP:12.70  size:    24
[37m2026-04-29 21:30:23.658[39m[0m[0m	[32m[1mDEBUG[22m[39m[0m[0m	[37m$bunfs/root/pochi:104693[39m[0m[0m[1m[37m	MjpegToMp4[39m[22m[0m[0m	[ffmpeg] stderr: [libx264 @ 0x64d64b1d0280] consecutive B-frames:  1.1%  0.3%  0.2% 98.3%
[37m2026-04-29 21:30:23.658[39m[0m[0m	[32m[1mDEBUG[22m[39m[0m[0m	[37m$bunfs/root/pochi:104693[39m[0m[0m[1m[37m	MjpegToMp4[39m[22m[0m[0m	[ffmpeg] stderr: [libx264 @ 0x64d64b1d0280] mb I  I16..4: 90.2%  2.6%  7.2%
[37m2026-04-29 21:30:23.658[39m[0m[0m	[32m[1mDEBUG[22m[39m[0m[0m	[37m$bunfs/root/pochi:104693[39m[0m[0m[1m[37m	MjpegToMp4[39m[22m[0m[0m	[ffmpeg] stderr: [libx264 @ 0x64d64b1d0280] mb P  I16..4:  0.1%  0.0%  0.0%  P16..4:  0.0%  0.0%  0.0%  0.0%  0.0%    skip:99.9%
[37m2026-04-29 21:30:23.658[39m[0m[0m	[32m[1mDEBUG[22m[39m[0m[0m	[37m$bunfs/root/pochi:104693[39m[0m[0m[1m[37m	MjpegToMp4[39m[22m[0m[0m	[ffmpeg] stderr: [libx264 @ 0x64d64b1d0280] mb B  I16..4:  0.0%  0.0%  0.0%  B16..8:  0.0%  0.0%  0.0%  direct: 0.0%  skip:100.0%  L0:56.2% L1:43.1% BI: 0.7%
[37m2026-04-29 21:30:23.658[39m[0m[0m	[32m[1mDEBUG[22m[39m[0m[0m	[37m$bunfs/root/pochi:104693[39m[0m[0m[1m[37m	MjpegToMp4[39m[22m[0m[0m	[ffmpeg] stderr: [libx264 @ 0x64d64b1d0280] 8x8 transform intra:2.6% inter:13.0%
[37m2026-04-29 21:30:23.658[39m[0m[0m	[32m[1mDEBUG[22m[39m[0m[0m	[37m$bunfs/root/pochi:104693[39m[0m[0m[1m[37m	MjpegToMp4[39m[22m[0m[0m	[ffmpeg] stderr: [libx264 @ 0x64d64b1d0280] coded y,uvDC,uvAC intra: 7.8% 5.3% 5.1% inter: 0.0% 0.0% 0.0%
[37m2026-04-29 21:30:23.658[39m[0m[0m	[32m[1mDEBUG[22m[39m[0m[0m	[37m$bunfs/root/pochi:104693[39m[0m[0m[1m[37m	MjpegToMp4[39m[22m[0m[0m	[ffmpeg] stderr: [libx264 @ 0x64d64b1d0280] i16 v,h,dc,p: 69% 27%  4%  0%
[37m2026-04-29 21:30:23.659[39m[0m[0m	[32m[1mDEBUG[22m[39m[0m[0m	[37m$bunfs/root/pochi:104693[39m[0m[0m[1m[37m	MjpegToMp4[39m[22m[0m[0m	[ffmpeg] stderr: [libx264 @ 0x64d64b1d0280] i8 v,h,dc,ddl,ddr,vr,hd,vl,hu: 50% 28% 13%  1%  1%  1%  1%  1%  3%
[37m2026-04-29 21:30:23.659[39m[0m[0m	[32m[1mDEBUG[22m[39m[0m[0m	[37m$bunfs/root/pochi:104693[39m[0m[0m[1m[37m	MjpegToMp4[39m[22m[0m[0m	[ffmpeg] stderr: [libx264 @ 0x64d64b1d0280] i4 v,h,dc,ddl,ddr,vr,hd,vl,hu: 27% 34% 20%  2%  3%  3%  4%  3%  4%
[37m2026-04-29 21:30:23.659[39m[0m[0m	[32m[1mDEBUG[22m[39m[0m[0m	[37m$bunfs/root/pochi:104693[39m[0m[0m[1m[37m	MjpegToMp4[39m[22m[0m[0m	[ffmpeg] stderr: [libx264 @ 0x64d64b1d0280] i8c dc,h,v,p: 92%  6%  2%  0%
[37m2026-04-29 21:30:23.659[39m[0m[0m	[32m[1mDEBUG[22m[39m[0m[0m	[37m$bunfs/root/pochi:104693[39m[0m[0m[1m[37m	MjpegToMp4[39m[22m[0m[0m	[ffmpeg] stderr: [libx264 @ 0x64d64b1d0280] Weighted P-Frames: Y:0.0% UV:0.0%
[37m2026-04-29 21:30:23.659[39m[0m[0m	[32m[1mDEBUG[22m[39m[0m[0m	[37m$bunfs/root/pochi:104693[39m[0m[0m[1m[37m	MjpegToMp4[39m[22m[0m[0m	[ffmpeg] stderr: [libx264 @ 0x64d64b1d0280] kb/s:15.66
[37m2026-04-29 21:30:23.670[39m[0m[0m	[32m[1mDEBUG[22m[39m[0m[0m	[37m$bunfs/root/pochi:104693[39m[0m[0m[1m[37m	MjpegToMp4[39m[22m[0m[0m	[ffmpeg] stderr: 
[37m2026-04-29 21:30:23.672[39m[0m[0m	[32m[1mDEBUG[22m[39m[0m[0m	[37mevents:98[39m[0m[0m[1m[37m	MjpegToMp4[39m[22m[0m[0m	[ffmpeg] end
[37m2026-04-29 21:30:35.341[39m[0m[0m	[32m[1mDEBUG[22m[39m[0m[0m	[37mnative:7[39m[0m[0m[1m[37m	Pochi[39m[22m[0m[0m	Task runner finished successfully.
[37m2026-04-29 21:30:35.341[39m[0m[0m	[32m[1mDEBUG[22m[39m[0m[0m	[37mnative:7[39m[0m[0m[1m[37m	Pochi[39m[22m[0m[0m	Shutting down...
[37m2026-04-29 21:30:35.362[39m[0m[0m	[32m[1mDEBUG[22m[39m[0m[0m	[37mnative:7[39m[0m[0m[1m[37m	Pochi[39m[22m[0m[0m	Shutdown completed. Process will exit.
[37m2026-04-29 21:30:35.362[39m[0m[0m	[32m[1mDEBUG[22m[39m[0m[0m	[37m[39m[0m[0m[1m[37m	Pochi[39m[22m[0m[0m	Process exiting with code 0
op=0 speed=31.7x    
[37m2026-04-29 21:29:39.048[39m[0m[0m	[32m[1mDEBUG[22m[39m[0m[0m	[37m$bunfs/root/pochi:104693[39m[0m[0m[1m[37m	MjpegToMp4[39m[22m[0m[0m	[ffmpeg] stderr: [mjpeg @ 0x644801fd23c0] EOI missing, emulating
[37m2026-04-29 21:29:39.731[39m[0m[0m	[32m[1mDEBUG[22m[39m[0m[0m	[37m$bunfs/root/pochi:104693[39m[0m[0m[1m[37m	MjpegToMp4[39m[22m[0m[0m	[ffmpeg] stderr:     Last message repeated 3 times
[37m2026-04-29 21:29:39.732[39m[0m[0m	[32m[1mDEBUG[22m[39m[0m[0m	[37m$bunfs/root/pochi:104693[39m[0m[0m[1m[37m	MjpegToMp4[39m[22m[0m[0m	[ffmpeg] stderr: frame= 1950 fps=785 q=28.0 size=       0kB time=00:01:17.92 bitrate=   0.0kbits/s dup=1939 drop=0 speed=31.4x    
[37m2026-04-29 21:29:40.140[39m[0m[0m	[32m[1mDEBUG[22m[39m[0m[0m	[37m$bunfs/root/pochi:104693[39m[0m[0m[1m[37m	MjpegToMp4[39m[22m[0m[0m	[ffmpeg] stderr: [mjpeg @ 0x644801fd23c0] EOI missing, emulating
[37m2026-04-29 21:29:40.230[39m[0m[0m	[32m[1mDEBUG[22m[39m[0m[0m	[37m$bunfs/root/pochi:104693[39m[0m[0m[1m[37m	MjpegToMp4[39m[22m[0m[0m	[ffmpeg] stderr:     Last message repeated 5 times
[37m2026-04-29 21:29:40.230[39m[0m[0m	[32m[1mDEBUG[22m[39m[0m[0m	[37m$bunfs/root/pochi:104693[39m[0m[0m[1m[37m	MjpegToMp4[39m[22m[0m[0m	[ffmpeg] stderr: frame= 2330 fps=781 q=28.0 size=       0kB time=00:01:33.08 bitrate=   0.0kbits/s dup=2294 drop=10 speed=31.2x    
[37m2026-04-29 21:29:40.239[39m[0m[0m	[32m[1mDEBUG[22m[39m[0m[0m	[37m$bunfs/root/pochi:104693[39m[0m[0m[1m[37m	MjpegToMp4[39m[22m[0m[0m	[ffmpeg] stderr: [mjpeg @ 0x644801fd23c0] EOI missing, emulating
[37m2026-04-29 21:29:40.990[39m[0m[0m	[32m[1mDEBUG[22m[39m[0m[0m	[37m$bunfs/root/pochi:104693[39m[0m[0m[1m[37m	MjpegToMp4[39m[22m[0m[0m	[ffmpeg] stderr:     Last message repeated 1 times
[37m2026-04-29 21:29:40.991[39m[0m[0m	[32m[1mDEBUG[22m[39m[0m[0m	[37m$bunfs/root/pochi:104693[39m[0m[0m[1m[37m	MjpegToMp4[39m[22m[0m[0m	[ffmpeg] stderr: frame= 2933 fps=789 q=28.0 size=       0kB time=00:01:57.24 bitrate=   0.0kbits/s dup=2885 drop=11 speed=31.5x    
[37m2026-04-29 21:29:41.615[39m[0m[0m	[32m[1mDEBUG[22m[39m[0m[0m	[37m$bunfs/root/pochi:104693[39m[0m[0m[1m[37m	MjpegToMp4[39m[22m[0m[0m	[ffmpeg] stderr: frame= 3471 fps=821 q=28.0 size=     256kB time=00:02:18.76 bitrate=  15.1kbits/s dup=3415 drop=11 speed=32.8x    
[37m2026-04-29 21:29:41.956[39m[0m[0m	[32m[1mDEBUG[22m[39m[0m[0m	[37m$bunfs/root/pochi:104693[39m[0m[0m[1m[37m	MjpegToMp4[39m[22m[0m[0m	[ffmpeg] stderr: [mp4 @ 0x644801fda700] Starting second pass: moving the moov atom to the beginning of the file
[37m2026-04-29 21:29:41.957[39m[0m[0m	[32m[1mDEBUG[22m[39m[0m[0m	[37m$bunfs/root/pochi:104693[39m[0m[0m[1m[37m	MjpegToMp4[39m[22m[0m[0m	[ffmpeg] stderr: [out#0/mp4 @ 0x644801fd4140] video:286kB audio:0kB subtitle:0kB other streams:0kB global headers:0kB muxing overhead: 15.757321%
[37m2026-04-29 21:29:41.957[39m[0m[0m	[32m[1mDEBUG[22m[39m[0m[0m	[37m$bunfs/root/pochi:104693[39m[0m[0m[1m[37m	MjpegToMp4[39m[22m[0m[0m	[ffmpeg] stderr: frame= 3770 fps=800 q=-1.0 Lsize=     330kB time=00:02:30.68 bitrate=  18.0kbits/s dup=3686 drop=11 speed=  32x    
[37m2026-04-29 21:29:41.957[39m[0m[0m	[32m[1mDEBUG[22m[39m[0m[0m	[37m$bunfs/root/pochi:104693[39m[0m[0m[1m[37m	MjpegToMp4[39m[22m[0m[0m	[ffmpeg] stderr: [libx264 @ 0x644801fd4c80] frame I:26    Avg QP:11.09  size:  6916
[37m2026-04-29 21:29:41.957[39m[0m[0m	[32m[1mDEBUG[22m[39m[0m[0m	[37m$bunfs/root/pochi:104693[39m[0m[0m[1m[37m	MjpegToMp4[39m[22m[0m[0m	[ffmpeg] stderr: [libx264 @ 0x644801fd4c80] frame P:951   Avg QP:10.43  size:    47
[37m2026-04-29 21:29:41.957[39m[0m[0m	[32m[1mDEBUG[22m[39m[0m[0m	[37m$bunfs/root/pochi:104693[39m[0m[0m[1m[37m	MjpegToMp4[39m[22m[0m[0m	[ffmpeg] stderr: [libx264 @ 0x644801fd4c80] frame B:2793  Avg QP:12.70  size:    24
[37m2026-04-29 21:29:41.957[39m[0m[0m	[32m[1mDEBUG[22m[39m[0m[0m	[37m$bunfs/root/pochi:104693[39m[0m[0m[1m[37m	MjpegToMp4[39m[22m[0m[0m	[ffmpeg] stderr: [libx264 @ 0x644801fd4c80] consecutive B-frames:  1.0%  0.6%  0.4% 98.0%
[37m2026-04-29 21:29:41.957[39m[0m[0m	[32m[1mDEBUG[22m[39m[0m[0m	[37m$bunfs/root/pochi:104693[39m[0m[0m[1m[37m	MjpegToMp4[39m[22m[0m[0m	[ffmpeg] stderr: [libx264 @ 0x644801fd4c80] mb I  I16..4: 91.5%  1.8%  6.7%
[37m2026-04-29 21:29:41.957[39m[0m[0m	[32m[1mDEBUG[22m[39m[0m[0m	[37m$bunfs/root/pochi:104693[39m[0m[0m[1m[37m	MjpegToMp4[39m[22m[0m[0m	[ffmpeg] stderr: [libx264 @ 0x644801fd4c80] mb P  I16..4:  0.2%  0.0%  0.0%  P16..4:  0.0%  0.0%  0.0%  0.0%  0.0%    skip:99.8%
[37m2026-04-29 21:29:41.958[39m[0m[0m	[32m[1mDEBUG[22m[39m[0m[0m	[37m$bunfs/root/pochi:104693[39m[0m[0m[1m[37m	MjpegToMp4[39m[22m[0m[0m	[ffmpeg] stderr: [libx264 @ 0x644801fd4c80] mb B  I16..4:  0.0%  0.0%  0.0%  B16..8:  0.0%  0.0%  0.0%  direct: 0.0%  skip:100.0%  L0:58.2% L1:41.6% BI: 0.3%
[37m2026-04-29 21:29:41.958[39m[0m[0m	[32m[1mDEBUG[22m[39m[0m[0m	[37m$bunfs/root/pochi:104693[39m[0m[0m[1m[37m	MjpegToMp4[39m[22m[0m[0m	[ffmpeg] stderr: [libx264 @ 0x644801fd4c80] 8x8 transform intra:1.9% inter:7.2%
[37m2026-04-29 21:29:41.958[39m[0m[0m	[32m[1mDEBUG[22m[39m[0m[0m	[37m$bunfs/root/pochi:104693[39m[0m[0m[1m[37m	MjpegToMp4[39m[22m[0m[0m	[ffmpeg] stderr: [libx264 @ 0x644801fd4c80] coded y,uvDC,uvAC intra: 6.7% 4.5% 4.3% inter: 0.0% 0.0% 0.0%
[37m2026-04-29 21:29:41.958[39m[0m[0m	[32m[1mDEBUG[22m[39m[0m[0m	[37m$bunfs/root/pochi:104693[39m[0m[0m[1m[37m	MjpegToMp4[39m[22m[0m[0m	[ffmpeg] stderr: [libx264 @ 0x644801fd4c80] i16 v,h,dc,p: 69% 28%  3%  0%
[37m2026-04-29 21:29:41.958[39m[0m[0m	[32m[1mDEBUG[22m[39m[0m[0m	[37m$bunfs/root/pochi:104693[39m[0m[0m[1m[37m	MjpegToMp4[39m[22m[0m[0m	[ffmpeg] stderr: [libx264 @ 0x644801fd4c80] i8 v,h,dc,ddl,ddr,vr,hd,vl,hu: 44% 24% 20%  2%  1%  2%  1%  1%  4%
[37m2026-04-29 21:29:41.958[39m[0m[0m	[32m[1mDEBUG[22m[39m[0m[0m	[37m$bunfs/root/pochi:104693[39m[0m[0m[1m[37m	MjpegToMp4[39m[22m[0m[0m	[ffmpeg] stderr: [libx264 @ 0x644801fd4c80] i4 v,h,dc,ddl,ddr,vr,hd,vl,hu: 26% 34% 21%  2%  3%  3%  4%  3%  4%
[37m2026-04-29 21:29:41.958[39m[0m[0m	[32m[1mDEBUG[22m[39m[0m[0m	[37m$bunfs/root/pochi:104693[39m[0m[0m[1m[37m	MjpegToMp4[39m[22m[0m[0m	[ffmpeg] stderr: [libx264 @ 0x644801fd4c80] i8c dc,h,v,p: 93%  6%  1%  0%
[37m2026-04-29 21:29:41.958[39m[0m[0m	[32m[1mDEBUG[22m[39m[0m[0m	[37m$bunfs/root/pochi:104693[39m[0m[0m[1m[37m	MjpegToMp4[39m[22m[0m[0m	[ffmpeg] stderr: [libx264 @ 0x644801fd4c80] Weighted P-Frames: Y:0.0% UV:0.0%
[37m2026-04-29 21:29:41.958[39m[0m[0m	[32m[1mDEBUG[22m[39m[0m[0m	[37m$bunfs/root/pochi:104693[39m[0m[0m[1m[37m	MjpegToMp4[39m[22m[0m[0m	[ffmpeg] stderr: [libx264 @ 0x644801fd4c80] kb/s:15.47
[37m2026-04-29 21:29:41.967[39m[0m[0m	[32m[1mDEBUG[22m[39m[0m[0m	[37m$bunfs/root/pochi:104693[39m[0m[0m[1m[37m	MjpegToMp4[39m[22m[0m[0m	[ffmpeg] stderr: 
[37m2026-04-29 21:29:41.968[39m[0m[0m	[32m[1mDEBUG[22m[39m[0m[0m	[37mevents:98[39m[0m[0m[1m[37m	MjpegToMp4[39m[22m[0m[0m	[ffmpeg] end
[37m2026-04-29 21:29:59.353[39m[0m[0m	[32m[1mDEBUG[22m[39m[0m[0m	[37mnative:7[39m[0m[0m[1m[37m	Pochi[39m[22m[0m[0m	Task runner finished successfully.
[37m2026-04-29 21:29:59.355[39m[0m[0m	[32m[1mDEBUG[22m[39m[0m[0m	[37mnative:7[39m[0m[0m[1m[37m	Pochi[39m[22m[0m[0m	Shutting down...
[37m2026-04-29 21:29:59.385[39m[0m[0m	[32m[1mDEBUG[22m[39m[0m[0m	[37mnative:7[39m[0m[0m[1m[37m	Pochi[39m[22m[0m[0m	Shutdown completed. Process will exit.
[37m2026-04-29 21:29:59.385[39m[0m[0m	[32m[1mDEBUG[22m[39m[0m[0m	[37m[39m[0m[0m[1m[37m	Pochi[39m[22m[0m[0m	Process exiting with code 0
